<svg id="图层_1" data-name="图层 1" xmlns="http://www.w3.org/2000/svg" viewBox="0 0 471.01 507.47">
    <defs>
        <style>.cls-1,.cls-9{fill:#2e3034;}.cls-1,.cls-2,.cls-3,.cls-4,.cls-5,.cls-7,.cls-8{isolation:isolate;}.cls-2{fill:#d24c33;}.cls-3{fill:#cfd1d8;}.cls-4{fill:#fff;}.cls-5,.cls-6{fill:#f05a38;}.cls-7{fill:#fbfbfb;}.cls-8{fill:#52a446;}</style>
    </defs>
    <path class="cls-1" d="M134.73,300.85S10.18,397.92,20.49,411.94s22.33,18.9,30.92,19.19S87.2,450,87.2,450s16.32,16.61,48.39,9.17,74.72-27.63,81.88,5.58-20.9,42.09-20.9,42.09,51-.57,88.76-47.82c0,0-6.59,27.78-28.06,50.4,0,0,132.2,3.08,134.54-157l1.49,0,5.15,83s93.15-84.27,59.08-193.91l0-2.17,32.64,19s17.53-80.53-116-111c0,0,13.2-104.35-67.73-145.38,0,0,.68,46.14-23,65.55s-41.1,49.67-40.82,77.64C242.53,145.16,92,279.29,134.73,300.85Z" transform="translate(-19.88 -1.97)"/>
    <path class="cls-2" d="M317.49,39.57S307.59,73.73,276,97.13c-25.72,19-33.79,86.63-33.79,86.63l-.23-28s-115.27,103-97.59,137c0,0,66.06-55.63,87-17,0,0-17.45-43-168.91,105.16A35,35,0,0,1,73.38,402.4s13.61,1.29,16.37-1.93,33.57-12.65,51.51-29.67,37.48-31.27,64.84-20.23c0,0,41.16-43,66.92-49.44s43.92,1.84,55,38.17c0,0-18.86-14-33.12-10.35,0,0,84.37,28-1.29,156.8,0,0,93.81-14.94,92-186.88,0,0,26.1,23.16,28.61,90.92,0,0,79.9-87.84,8.79-179.45l52.39,26s-7.79-62.59-106-71.29c0,0-9.48,30.83-16.27,36.77C353.05,201.82,386.76,79.71,317.49,39.57Z" transform="translate(-19.88 -1.97)"/>
    <path class="cls-3" d="M73.36,401.29s3,12.41-10.06,26.16c0,0,11.07,10.07,36.56,10.07s41.93-5,41.93-5,15.94-6.61,35.14-25.61,41.65.4,22.06,4.36-14.31,1.52-30.27,13.37S117,447.07,111.44,446.08c0,0,2.23,4.85,14.41,3.7s43.2-8.64,61.79-11.27,55.34-4.4,35.87,56.55c0,0,39.26-13.82,85.13-78.22l-2,20s53.5-94.8-37.55-108.4c0,0,8-13.92,31.66-11.14,0,0-13.45-32-93.46,32.93l11.6,9.28s-32.47-20.64-70,19.48C148.82,379,128.25,401.52,73.36,401.29Z" transform="translate(-19.88 -1.97)"/>
    <path class="cls-4" d="M206.45,350.81l11.72,8.48S185.58,339.44,148,379.56c0,0-19.76,22-74.65,21.73,0,0,1.64,11.91-8.64,24.68,0,0,32.19,17.91,64.69.34s46.85-43.63,47.73-43.63,22.54-20.2,37.48,4.69c0,0,4.39,5.85,2,16.1,0,0,23.94-4.58,29.81,11.54s-6.32,47.43-6.32,47.43,116.73-107.19,5.56-124.89c0,0,10.57-8.5,20.83-8.92,0,0,13.71-15.1,32.14-10.25C298.69,318.38,286.94,284.49,206.45,350.81Z" transform="translate(-19.88 -1.97)"/>
    <path class="cls-5" d="M148.87,317s-14.23-5.81-28.31,30.13C105,386.77,78.35,394.78,78.35,394.78s28.51-4.49,65.45-32,41.72-27.53,67.71-24.72l39-38.36s9.44-11,32.1-13.22,52.88-14.48,76.49,23.92c0,0,8.5-46.27-47.53-48.79,0,0,24.24-17.62,68.31-12.9,0,0-12-8.19-43.44-13.22,0,0,8.47-7.57,8.86-12s8.78-55.16-7-73.64c0,0,12,75.64-39.48,119L286,274.54s22.78-32,19.07-43.59c0,0-29,46.56-58.45,37.89,0,0-4.71,19.57-17.83,6.69,0,0-28.73-12.64-22.05,7.67s-13.49,53.23-69.6,58.92C137.12,342.12,136.77,323.12,148.87,317Z" transform="translate(-19.88 -1.97)"/>
    <path class="cls-6" d="M235.27,171.35s-66.44,55.61-82.69,109c0,0,36.81-30.18,78.25-33.82s45.93-28.64,45.93-28.64-9.81,12.47-41.63-.28c0,0,42.19-7.29,60.28-45,0,0,5.46-9.67,7.15,2.66s2.8,17.66,2.8,17.66l5.33-28s8.83,7.43,10.93,16.4l-2.8-47.38s.84,2.94-12.62,15.84-14,14.16-16,25c0,0-1.68,6.31-8.27,5.19s1.26-43.18,1.26-43.18-20.89,16.26-27,42.48c-3.43,14.56-9.28,15-13.8,12.47a12.89,12.89,0,0,1-6.45-11.18Z" transform="translate(-19.88 -1.97)"/>
    <path class="cls-1" d="M201.15,270.93s17.2,46.25-60.18,65.94l15.2-16.08a23.19,23.19,0,0,1-7.34-14.45C146.7,290.47,168.57,271.47,201.15,270.93Z" transform="translate(-19.88 -1.97)"/>
    <path class="cls-7" d="M155.32,298.26s2.76,18.38,17.67,11.15c17.33-8.41,18.7-20.93,17-34.83Z" transform="translate(-19.88 -1.97)"/>
    <path class="cls-8" d="M155.32,298.26s2.53,18.86,18.38,10.82c7.53-3.83,10.67-16.1,9.36-29.83Z" transform="translate(-19.88 -1.97)"/>
    <ellipse class="cls-1" cx="165.11" cy="296.53" rx="7.26" ry="12.67" transform="translate(-81.6 42.09) rotate(-12.83)"/>
    <ellipse class="cls-4" cx="172.75" cy="294.92" rx="2.4" ry="4.2" transform="translate(-81.05 43.75) rotate(-12.83)"/>
    <path class="cls-9" d="M322.41,95.07s-1.06,10.47-21.3,32.49-20.42,38.88-17.58,44.74c0,0,.18-16.86,29.65-43.32,0,0,6.39-7.28,6.93-14,0,0,10.12,57.71,2.84,88.07l-12.61-27.7s.53,21.49-14.2,38.18c0,0,5.5-28.24,2.66-36.23,0,0-18.82,31.61-49.89,37.11,0,0,24.86,5.33,42.26-15.09,0,0-2,20.51-20.6,38.35,0,0,36.22-2.4,44.21-33.47,0,0,1.78,34.45-8.35,49.9,0,0,27.88-29.66,28.95-62.5s-1.07-43-3.56-51.67S320.11,99.77,322.41,95.07Z" transform="translate(-19.88 -1.97)"/>
</svg>