<svg xmlns="http://www.w3.org/2000/svg" xmlns:xlink="http://www.w3.org/1999/xlink" width="16" height="16" class="icon" p-id="12783" t="1646720699672" version="1.1" viewBox="0 0 1024 1024"><defs><style type="text/css"/></defs><path fill="#FFF" d="M4.376068 504.123077a504.123077 499.747009 90 1 0 999.494017 0 504.123077 499.747009 90 1 0-999.494017 0Z" p-id="12784"/><path fill="#DAEEFF" d="M840.205128 878.71453v-498.871795c0-17.504274-14.003419-31.507692-30.632478-31.507692h-15.753847v-35.008547c0-17.504274-14.003419-31.507692-30.632478-31.507693H245.059829c-16.62906 0-30.632479 14.003419-30.632479 31.507693v35.008547h-15.753846c-16.62906 0-30.632479 14.003419-30.632478 31.507692v497.996581C75.268376 788.567521 17.504274 660.786325 17.504274 520.752137 17.504274 247.68547 235.432479 26.25641 504.123077 26.25641s486.618803 221.42906 486.618803 494.495727c0 140.034188-57.764103 267.815385-150.536752 357.962393" p-id="12785"/><path fill="#2592FC" d="M769.312821 330.830769v-14.003419c0-5.251282-4.376068-10.502564-10.502565-10.502564H249.435897c-5.251282 0-10.502564 4.376068-10.502564 10.502564v14.003419h530.379488z m35.008547 0c19.254701 0 35.008547 15.753846 35.008547 35.883761v475.241026c89.271795-90.147009 139.158974-210.051282 139.158974-337.832479 0-264.31453-212.676923-478.74188-474.365812-478.74188S29.757265 240.683761 29.757265 504.123077c0 127.781197 49.011966 247.68547 139.158974 337.832479V366.71453c0-19.254701 15.753846-35.883761 35.008547-35.883761H214.42735v-14.003419c0-19.254701 15.753846-35.883761 35.008547-35.88376h510.249573c19.254701 0 35.008547 15.753846 35.008547 35.88376v14.003419h9.627351zM193.422222 866.461538c8.752137 7.876923 18.379487 15.753846 28.006838 22.755556l7.876923 5.251282 7.876923 5.251282c16.62906 11.377778 34.133333 21.880342 52.51282 31.507692l15.753847 7.876924c6.126496 2.625641 11.377778 5.251282 16.629059 7.876923 57.764103 24.505983 119.02906 36.758974 182.044445 36.758974s124.280342-12.252991 182.044444-36.758974c5.251282-2.625641 11.377778-4.376068 16.62906-7.876923l15.753846-7.876924c18.379487-9.62735 35.883761-20.129915 52.512821-31.507692l7.876923-5.251282 7.876923-5.251282c9.62735-7.001709 19.254701-14.878632 28.006838-22.755556V366.71453c0-5.251282-4.376068-10.502564-10.502564-10.502564H203.924786c-5.251282 0-10.502564 4.376068-10.502564 10.502564V866.461538z m310.700855 141.784616c-78.769231 0-153.162393-17.504274-223.179487-53.388034-5.251282-2.625641-9.62735-5.251282-14.878633-7.876923l-13.128205-7.876923-21.005128-13.128206-7.876923-5.251282-7.876923-5.251282c-10.502564-7.876923-21.005128-15.753846-30.632479-23.630769-2.625641-1.750427-5.251282-4.376068-7.876923-6.126496-2.625641-2.625641-5.251282-4.376068-7.876923-7.001709C64.765812 784.191453 4.376068 646.782906 4.376068 504.123077 4.376068 225.805128 228.430769 0 504.123077 0s499.747009 225.805128 499.747008 504.123077c0 142.659829-60.389744 279.193162-165.415384 375.466667-2.625641 2.625641-5.251282 4.376068-7.876923 7.001709s-5.251282 4.376068-7.876923 6.126496c-9.62735 7.876923-20.129915 15.753846-30.632479 23.630769l-7.876923 5.251282-7.876923 5.251282-21.005128 13.128205-13.128205 7.876923c-5.251282 2.625641-9.62735 5.251282-14.878633 7.876923-69.14188 35.008547-144.410256 52.512821-223.179487 52.512821z" p-id="12786"/><path fill="#2592FC" d="M309.825641 540.006838c-7.001709 0-12.252991-6.126496-12.252991-13.128206s5.251282-13.128205 12.252991-13.128205h388.594872c7.001709 0 12.252991 6.126496 12.252991 13.128205s-5.251282 13.128205-12.252991 13.128206H309.825641zM309.825641 621.401709c-7.001709 0-12.252991-6.126496-12.252991-13.128205s5.251282-13.128205 12.252991-13.128205h328.205128c7.001709 0 12.252991 6.126496 12.252992 13.128205s-5.251282 13.128205-12.252992 13.128205H309.825641zM309.825641 702.796581c-7.001709 0-12.252991-6.126496-12.252991-13.128205s5.251282-13.128205 12.252991-13.128205h247.68547c7.001709 0 12.252991 6.126496 12.252992 13.128205s-5.251282 13.128205-12.252992 13.128205H309.825641z" p-id="12787"/><path fill="#DAEEFF" d="M681.791453 846.331624a162.789744 161.039316 90 1 0 322.078632 0 162.789744 161.039316 90 1 0-322.078632 0Z" p-id="12788"/><path fill="#2592FC" d="M842.830769 1024c-97.148718 0-175.917949-79.644444-175.917948-177.668376 0-98.023932 78.769231-178.54359 175.917948-178.54359 97.148718 0 176.793162 79.644444 176.793163 178.54359 0 98.023932-79.644444 177.668376-176.793163 177.668376z m0-325.579487c-80.519658 0-145.28547 66.516239-145.28547 147.911111s65.641026 147.035897 145.28547 147.035897 146.160684-66.516239 146.160684-147.035897-65.641026-147.911111-146.160684-147.911111z" p-id="12789"/><path fill="#2592FC" d="M894.450872 841.719248c-3.500855 0-7.876923-1.750427-10.502564-4.376069l-41.135043-41.135042-41.135043 40.259829c-6.126496 6.126496-15.753846 6.126496-21.880342 0s-6.126496-15.753846 0-21.880342l51.637607-51.637607c3.500855-2.625641 7.001709-4.376068 11.377778-4.376068s7.876923 1.750427 10.502564 4.376068l51.637607 52.512821c6.126496 6.126496 6.126496 15.753846 0 21.880341-2.625641 2.625641-7.001709 4.376068-10.502564 4.376069z" p-id="12790"/><path fill="#2592FC" d="M842.813265 939.743179c-8.752137 0-15.753846-7.001709-15.753846-15.753846v-149.661538c0-8.752137 7.001709-15.753846 15.753846-15.753846s15.753846 7.001709 15.753846 15.753846v149.661538c0 8.752137-7.001709 15.753846-15.753846 15.753846z" p-id="12791"/></svg>